<svg xmlns="http://www.w3.org/2000/svg" xmlns:xlink="http://www.w3.org/1999/xlink" id="Ebene_1" x="0px" y="0px" viewBox="0 0 2000 400" style="enable-background:new 0 0 2000 400;" xml:space="preserve"><style type="text/css">	.st0{fill:#0049FF;}	.st1{display:none;}	.st2{display:inline;}	.st3{display:inline;fill:#FFFFFF;}	.st4{display:none;fill:#FFFFFF;}	.st5{font-family:'CoolveticaRg-Regular';}	.st6{font-size:342px;}	.st7{fill:#FFFFFF;}</style><symbol id="logo_x5F_icon" viewBox="-181.4 -138.7 362.8 277.4">	<g>		<path class="st0" d="M-58.6-138.7L-168.2-29c-17.5,17.5-17.5,45.9,0,63.4l9.9,9.9L-48.7-65.4c17.5-17.5,17.5-45.9,0-63.4    L-58.6-138.7z"></path>		<path class="st0" d="M-17,102.4L-158.4-38.9l-9.9,9.9c-17.5,17.5-17.5,45.9,0,63.4l78,78c17.5,17.5,45.9,17.5,63.4,0L-17,102.4z"></path>		<path class="st0" d="M-48.5,50.7l-51.8,51.8l9.9,9.9c17.5,17.5,45.9,17.5,63.4,0l51.8-51.8l-9.9-9.9C-2.6,33.1-31,33.1-48.5,50.7z    "></path>		<path class="st0" d="M-83.7,35.8l-0.2,65.6l65.6,0.2c-0.1-21.4-0.2-42.7-0.2-64.1c-2.3,0.1-5.8,0.4-9.9,1.5    c-5.4,1.5-8.2,3.4-11.7,5c-8.2,3.8-16.2,3.8-19.4,3.7C-71.3,47.1-79.9,39.7-83.7,35.8z"></path>		<path class="st0" d="M-85.8-28.4c-21.7,0.1-43.4,0.1-65,0.2c0,20.2,0,40.5,0,60.7c21.1-0.2,42.2-0.5,63.3-0.7    c-2.1-2.2-11.9-12.7-11.9-29.1C-99.5-15.4-87.7-26.6-85.8-28.4z"></path>	</g>	<g>		<path class="st0" d="M58.6,138.7L168.2,29c17.5-17.5,17.5-45.9,0-63.4l-9.9-9.9L48.7,65.4c-17.5,17.5-17.5,45.9,0,63.4L58.6,138.7    z"></path>		<path class="st0" d="M17-102.4L158.4,38.9l9.9-9.9c17.5-17.5,17.5-45.9,0-63.4l-78-78c-17.5-17.5-45.9-17.5-63.4,0L17-102.4z"></path>		<path class="st0" d="M48.5-50.7l51.8-51.8l-9.9-9.9c-17.5-17.5-45.9-17.5-63.4,0l-51.8,51.8l9.9,9.9C2.6-33.1,31-33.1,48.5-50.7z"></path>		<path class="st0" d="M83.7-35.8l0.2-65.6l-65.6-0.2c0.1,21.4,0.2,42.7,0.2,64.1c2.3-0.1,5.8-0.4,9.9-1.5c5.4-1.5,8.2-3.4,11.7-5    c8.2-3.8,16.2-3.8,19.4-3.7C71.3-47.1,79.9-39.7,83.7-35.8z"></path>		<path class="st0" d="M85.8,28.4c21.7-0.1,43.4-0.1,65-0.2c0-20.2,0-40.5,0-60.7c-21.1,0.2-42.2,0.5-63.3,0.7    c2.1,2.2,11.9,12.7,11.9,29.1C99.5,15.4,87.7,26.6,85.8,28.4z"></path>	</g></symbol><rect class="st1" width="2000" height="400"></rect><g>	<g class="st1">		<g class="st2">			<path class="st0" d="M281.9,334.4L172.3,224.7c-17.5-17.5-17.5-45.9,0-63.4l9.9-9.9l109.6,109.6c17.5,17.5,17.5,45.9,0,63.4     L281.9,334.4z"></path>			<path class="st0" d="M323.5,93.3L182.1,234.6l-9.9-9.9c-17.5-17.5-17.5-45.9,0-63.4l78-78c17.5-17.5,45.9-17.5,63.4,0L323.5,93.3     z"></path>			<path class="st0" d="M292,145l-51.8-51.8l9.9-9.9c17.5-17.5,45.9-17.5,63.4,0l51.8,51.8l-9.9,9.9     C337.9,162.5,309.5,162.5,292,145z"></path>			<path class="st0" d="M256.8,159.9l-0.2-65.6l65.6-0.2c-0.1,21.4-0.2,42.7-0.2,64.1c-2.3-0.1-5.8-0.4-9.9-1.5     c-5.4-1.5-8.2-3.4-11.7-5c-8.2-3.8-16.2-3.9-19.4-3.7C269.2,148.5,260.6,156,256.8,159.9z"></path>			<path class="st0" d="M254.7,224c-21.7-0.1-43.4-0.1-65-0.2c0-20.2,0-40.5,0-60.7c21.1,0.2,42.2,0.5,63.3,0.7     c-2.1,2.2-11.9,12.7-11.9,29.1C241,211.1,252.8,222.3,254.7,224z"></path>		</g>		<g class="st2">			<path class="st0" d="M399.1,57l109.7,109.7c17.5,17.5,17.5,45.9,0,63.4l-9.9,9.9L389.2,130.2c-17.5-17.5-17.5-45.9,0-63.4     L399.1,57z"></path>			<path class="st0" d="M357.5,298.1l141.3-141.4l9.9,9.9c17.5,17.5,17.5,45.9,0,63.4l-78,78c-17.5,17.5-45.9,17.5-63.4,0     L357.5,298.1z"></path>			<path class="st0" d="M389,246.3l51.8,51.8l-9.9,9.9c-17.5,17.5-45.9,17.5-63.4,0l-51.8-51.8l9.9-9.9     C343.1,228.8,371.5,228.8,389,246.3z"></path>			<path class="st0" d="M424.2,231.5l0.2,65.6l-65.6,0.2c0.1-21.4,0.2-42.7,0.2-64.1c2.3,0.1,5.8,0.4,9.9,1.5     c5.4,1.5,8.2,3.4,11.7,5c8.2,3.8,16.2,3.9,19.4,3.7C411.8,242.8,420.4,235.4,424.2,231.5z"></path>			<path class="st0" d="M426.3,167.3c21.7,0.1,43.4,0.1,65,0.2c0,20.2,0,40.5,0,60.7c-21.1-0.2-42.2-0.5-63.3-0.7     c2.1-2.2,11.9-12.7,11.9-29.1C440,180.3,428.2,169.1,426.3,167.3z"></path>		</g>	</g>	<g class="st1">		<path class="st3" d="M583.9,323.5c0-12.6,0-24.7,0-36.5s0-24.7,0-38.9V153c0-14.4,0-28.5,0-42.2s0-27.1,0-40.3l37-4    c0,13.8,0,27.8,0,41.9s0,28.9,0,44.5v95.2c0,14.2,0,27.1,0,38.9s0,23.9,0,36.5L583.9,323.5L583.9,323.5z"></path>		<path class="st3" d="M714.9,327.2c-9.8,0-18.5-2-26.3-6c-7.7-4-13.8-9.7-18.2-17.3c-4.4-7.5-6.7-16.7-6.7-27.6    c0-9.6,1.6-17.6,4.9-24.1c3.3-6.5,7.6-11.8,13-16c5.4-4.1,11.5-7.4,18.2-9.7c6.7-2.3,13.4-4,20.2-5l51-7.9    c0.5-9.6-1-16.9-4.2-21.9c-3.3-5.1-7.9-8.5-13.8-10.4c-5.9-1.8-12.7-2.8-20.1-2.8c-3.9,0-8.2,0.3-12.7,0.9    c-4.5,0.6-9.3,1.5-14.3,2.9c-5,1.3-10.3,2.9-15.7,4.8s-11.1,4.2-16.8,6.8l-2.1-32.8c4.3-1.7,9-3.4,14.3-5c5.3-1.6,11-3.1,17.2-4.4    c6.2-1.3,12.5-2.3,19.1-3c6.6-0.7,13.2-1,20-1c13.6,0,25.2,2,34.9,6.1s17.1,10.5,22.3,19.3s7.8,20.2,7.8,34.3c0,5.5,0,12.4,0,20.6    c0,8.2,0,15.8,0,22.8v20.7c0,8.2,0,16.5,0,24.9c0,8.4,0,17.5,0,27.3h-33.3l-2.1-22.8h-3.3c-3.3,4.3-7.5,8.4-12.5,12.4    s-11,7.4-17.8,10C730.9,325.8,723.3,327.2,714.9,327.2z M727,297.8c5.5,0,11-1.2,16.3-3.7c5.4-2.5,10.3-6,15-10.6    c4.6-4.6,8.6-10.2,11.9-16.8v-30.4c-1.7,1-4,2-6.7,2.9c-2.7,0.9-6.8,2-12.2,3.1c-5.4,1.1-13,2.6-22.8,4.3    c-5.7,0.9-10.5,2.6-14.5,5c-4,2.4-7.2,5.6-9.4,9.4c-2.2,3.9-3.4,8.4-3.4,13.7c0,8.4,2.6,14.3,7.7,17.8    C714,296.1,720.1,297.8,727,297.8z"></path>		<path class="st3" d="M907,327.5c-7.5,0-14.9-0.5-22.2-1.6s-14.2-2.5-20.6-4.4c-6.4-1.9-12-4-16.8-6.3l2.8-33.5    c5.2,3,10.8,5.6,16.9,7.9c6.1,2.2,12.5,4,19.1,5.2c6.6,1.2,13.3,1.8,20,1.8c5.5,0,10.6-0.5,15.3-1.6c4.7-1.1,8.4-3.2,11.2-6.3    s4.2-7.7,4.2-13.8c0-4-1.3-7.4-4-10c-2.7-2.6-7-5-13-7.2c-6-2.1-14.2-4.6-24.5-7.5c-9.6-2.5-17.9-5.7-25-9.5    c-7.1-3.8-12.6-8.9-16.5-15.2c-3.9-6.3-5.9-14.7-5.9-25.1c0-16.7,5.4-29.7,16.1-38.9c10.7-9.2,25.1-13.8,43-13.8    c7.6,0,15,0.6,22.1,1.8c7.1,1.2,13.7,2.8,19.6,4.7s11,3.9,15.1,6l-2.9,33.5c-5.3-3.3-11-6.1-17.2-8.4c-6.2-2.2-12.1-3.9-17.7-5    c-5.7-1.1-10.4-1.6-14.3-1.6c-4.5,0-8.7,0.6-12.7,1.8c-4,1.2-7.2,3.3-9.6,6.2c-2.4,2.9-3.6,6.9-3.6,11.8c0,3.9,0.9,7.3,2.8,10    c1.8,2.8,5.2,5.3,10.1,7.6c4.9,2.3,12,4.7,21.3,7.3c11.6,3.3,21.5,6.9,29.6,10.5c8.1,3.7,14.3,8.5,18.4,14.5    c4.2,6,6.2,14.3,6.2,24.9c0,10.6-2.3,20-6.9,28.2c-4.6,8.2-11.9,14.6-21.8,19.2C935.8,325.2,922.9,327.5,907,327.5z"></path>		<path class="st3" d="M994.3,180.3v-28.5h124.8v28.5c-11.3,0-22.6,0-34,0c-11.4,0-22.5,0-33.3,0H1036H994.3z M1081.4,327.7    c-11.9,0-22-2-30.3-5.9s-14.7-10-19-18.3c-4.3-8.3-6.5-19-6.5-32.1c0-9.1,0-18.2,0-27.4s0-18.3,0-27.5s0-18.3,0-27.4    c0-9.1,0-18.2,0-27.3c0-12.2,0-23.5,0-33.9c0-10.4,0-21,0-32l36.5-7.3c0,8.8,0,16.9,0,24.4c0,7.5,0,15.1,0,22.9s0,16.4,0,25.8    v99.4c0,11.8,2.4,20.6,7.1,26.5c4.7,5.9,12.1,8.9,22.1,8.9c4.2,0,8.6-0.7,13.4-2.2s9.2-3.7,13.2-6.6l2.6,31.1    c-2.7,1.7-6,3.3-10.1,4.6c-4.1,1.3-8.6,2.4-13.7,3.1C1091.7,327.3,1086.6,327.7,1081.4,327.7z"></path>		<path class="st3" d="M1231.9,327c-18.9,0-34.9-3.9-48.1-11.7c-13.2-7.8-23.2-18.4-30.2-31.9c-6.9-13.5-10.4-28.7-10.4-45.8    c0-17.2,3.2-32.6,9.8-46.1s16.1-24.3,28.9-32.1s28.4-11.8,46.9-11.8c6.7,0,13.3,0.6,20,1.6c6.6,1.1,12.9,2.6,18.8,4.5    s11.1,4.1,15.6,6.6l-3.1,32.8c-6.4-3.7-12.5-6.5-18.1-8.5c-5.6-2-10.7-3.3-15.5-4.1s-9.1-1.1-13-1.1c-15.9,0-28.6,5.2-38.2,15.5    c-9.6,10.3-14.3,24.2-14.3,41.7c0,11.3,2.2,21.4,6.6,30.2s10.9,15.9,19.6,21.1s19.5,7.8,32.4,7.8c4.7,0,9.4-0.4,14.2-1.3    c4.7-0.9,9.4-2.2,13.9-4c4.6-1.8,9-4.1,13.2-6.8l2.6,33c-3.9,1.8-8.4,3.5-13.5,5.1s-10.8,2.8-17.1,3.7    C1246.5,326.5,1239.5,327,1231.9,327z"></path>		<path class="st3" d="M1365,327.2c-9.8,0-18.6-2-26.3-6s-13.8-9.7-18.2-17.3c-4.4-7.5-6.7-16.7-6.7-27.6c0-9.6,1.6-17.6,4.9-24.1    c3.3-6.5,7.6-11.8,13.1-16c5.4-4.1,11.5-7.4,18.2-9.7c6.7-2.3,13.4-4,20.2-5l51-7.9c0.5-9.6-0.9-16.9-4.2-21.9    c-3.3-5.1-7.9-8.5-13.8-10.4c-5.9-1.8-12.6-2.8-20.1-2.8c-3.9,0-8.2,0.3-12.7,0.9c-4.6,0.6-9.3,1.5-14.3,2.9    c-5,1.3-10.3,2.9-15.7,4.8s-11.1,4.2-16.8,6.8l-2.1-32.8c4.3-1.7,9-3.4,14.3-5c5.3-1.6,11-3.1,17.2-4.4c6.2-1.3,12.5-2.3,19.1-3    s13.2-1,20.1-1c13.6,0,25.2,2,34.9,6.1s17.1,10.5,22.3,19.3s7.8,20.2,7.8,34.3c0,5.5,0,12.4,0,20.6c0,8.2,0,15.8,0,22.8v20.7    c0,8.2,0,16.5,0,24.9c0,8.4,0,17.5,0,27.3h-33.3l-2.1-22.8h-3.3c-3.3,4.3-7.5,8.4-12.5,12.4s-10.9,7.4-17.8,10    C1381,325.8,1373.4,327.2,1365,327.2z M1377.1,297.8c5.5,0,11-1.2,16.3-3.7s10.3-6,14.9-10.6c4.6-4.6,8.6-10.2,11.9-16.8v-30.4    c-1.7,1-3.9,2-6.7,2.9c-2.7,0.9-6.8,2-12.2,3.1c-5.4,1.1-13,2.6-22.8,4.3c-5.7,0.9-10.5,2.6-14.5,5c-4,2.4-7.2,5.6-9.4,9.4    c-2.2,3.9-3.4,8.4-3.4,13.7c0,8.4,2.6,14.3,7.7,17.8C1364.2,296.1,1370.2,297.8,1377.1,297.8z"></path>		<path class="st3" d="M1506.2,323.5c0-12.6,0-24.7,0-36.5s0-24.7,0-38.9v-17.3c0-12.8,0-25.8,0-39.1s0-26.6,0-40l31.6-2.1l1.4,33.9    h3.5c4.6-10.1,9.8-17.8,15.7-23s11.9-8.7,18-10.5c6.1-1.8,11.8-2.7,17.1-2.7c3,0,6.1,0.2,9.3,0.7s6.3,1.2,9.2,2.2l-3.3,36.6    c-4-0.7-7.7-1.2-10.9-1.6c-3.2-0.4-6.9-0.5-11.1-0.5c-3.2,0-6.8,0.4-10.7,1.3c-3.9,0.9-7.9,2.6-11.8,5.3c-4,2.6-7.8,6.6-11.4,11.8    c-3.6,5.2-6.8,12.1-9.6,20.6v26.1c0,13.2,0,25.7,0,37.2s0,23.6,0,36.2H1506.2z"></path>		<path class="st3" d="M1721,327.5c-21.1,0-38.4-3.9-52-11.8s-23.7-18.5-30.2-32.1c-6.5-13.6-9.8-29.2-9.8-46.8    c0-17.4,3.1-32.8,9.4-46.3s15.5-24,27.6-31.5c12.1-7.5,26.7-11.3,43.9-11.3c14.9,0,27.7,2.8,38.4,8.4c10.7,5.6,18.9,13.9,24.7,25    s8.6,24.8,8.6,41.1c0,4.4-0.1,8.3-0.3,11.8c-0.2,3.5-0.6,7-1.1,10.5l-32.3-14.2c0.2-1.7,0.4-3.4,0.5-5.1c0.1-1.7,0.2-3.2,0.2-4.8    c0-14.2-3.5-25.1-10.6-32.9c-7.1-7.8-16.3-11.7-27.7-11.7c-8.9,0-16.6,2.4-23.2,7.3c-6.6,4.8-11.7,11.5-15.3,19.9    c-3.6,8.4-5.4,18.1-5.4,29v5.5c0,12.2,2.1,22.7,6.3,31.4c4.2,8.8,10.7,15.5,19.4,20.2s19.7,7.1,32.9,7.1c5.1,0,10.6-0.4,16.7-1.3    c6.1-0.9,12.1-2.2,18.2-4.1c6.1-1.8,11.9-4.2,17.3-7.1l1.4,32.1c-4.4,2.3-9.5,4.3-15.4,6c-5.9,1.7-12.4,3.1-19.4,4.1    C1736.6,327,1729,327.5,1721,327.5z M1643.9,244.4v-25.2l114.2-1.4l22.1,9.2v17.4H1643.9z"></path>	</g>	<text transform="matrix(1 0 0 1 588.8365 310.0962)" class="st4 st5 st6">zenfokus</text>	<g>		<path class="st7" d="M591.9,310.1v-34.2l85.8-98.8h-80v-35.2h136.8v35.9l-85.8,96.1h88.2v36.3H591.9z"></path>		<path class="st7" d="M783.8,237.6c1.4,25.3,15.7,41.7,37.6,41.7c14.4,0,27-7.2,30.1-18.8h45.8c-10.3,34.5-38,54-73.9,54    c-56.1,0-84.1-30.8-84.1-91.7c0-52,29.8-85.5,81.4-85.5s79,33.5,79,100.2H783.8z M853.9,209.5c-0.7-25-17.1-36.9-34.5-36.9    c-17.8,0-32.5,13.7-34.2,36.9H853.9z"></path>		<path class="st7" d="M1022.8,310.1V208.2c0-26-7.5-33.2-28.7-33.2c-23.3,0-34.5,13-34.5,38.6v96.4h-44.5V141.8h42.4v24.6    c10.3-18.8,27.4-29.1,54.4-29.1c32.1,0,55.7,19.5,55.7,56.1v116.6H1022.8z"></path>		<path class="st7" d="M1095.3,310.1V173.3h-25v-31.5h25c0-41,23.6-61.6,71.5-61.6v35.9c-22.6,0-27.7,6.2-27.7,25.6h28.7v31.5h-28.7    v136.8H1095.3z"></path>		<path class="st7" d="M1164.1,226c0-53.4,33.2-88.6,86.5-88.6c52.7,0,85.5,34.9,85.5,88.6c0,53.4-33.2,88.6-85.5,88.6    C1196.2,314.5,1164.1,278.3,1164.1,226z M1291.3,226c0-34.2-13.7-51-40.7-51s-40.7,16.8-40.7,51c0,34.2,13.7,51.3,40.7,51.3    S1291.3,260.2,1291.3,226z"></path>		<path class="st7" d="M1455.5,310.1l-36.9-75.6l-21.5,22.2v53.4h-44.8V80.3h44.8v125.5l55.4-64h54.4l-56.4,61.9l55.1,106.4H1455.5z    "></path>		<path class="st7" d="M1626.8,310.1v-23.6c-11.6,19.2-29.1,28-52.3,28c-33.5,0-57.1-25-57.1-61.9V141.8h44.5v104    c0,21.2,9.6,31.5,28.4,31.5c22.6,0,34.5-16.1,34.5-38.3v-97.1h44.1v168.3H1626.8z"></path>		<path class="st7" d="M1789.6,192.8c-2.4-16.4-11.3-22.2-31.5-22.2c-16.8,0-26.3,4.1-26.3,14s9.2,14,27.4,19.2    c19.2,5.5,37.3,9.2,50.3,14.4c17.8,7.2,27.7,18.8,27.7,40.7c0,34.9-25.7,55.7-73.5,55.7c-51.6,0-80.4-24.3-81.1-58.5h45.8    c0,15.7,13.3,25,34.9,25c15.7,0,29.8-4.8,29.8-17.4c0-12-12.7-15.7-27-19.2c-28.4-6.8-44.1-11.6-56.1-19.2    c-15.7-9.9-21.2-22.9-21.2-38c0-28.4,19.5-49.9,70.8-49.9c48.6,0,70.5,19.2,72.8,55.4H1789.6z"></path>	</g></g><g class="st1">	<g>		<path class="st3" d="M607.8,299.3c0-12.6,0-24.7,0-36.5s0-24.7,0-38.9v-95.2c0-14.4,0-28.5,0-42.2s0-27.1,0-40.3l37-4    c0,13.8,0,27.8,0,41.9s0,28.9,0,44.5v95.2c0,14.2,0,27.1,0,38.9c0,11.8,0,23.9,0,36.5L607.8,299.3L607.8,299.3z"></path>		<path class="st3" d="M738.8,302.9c-9.8,0-18.5-2-26.3-6c-7.7-4-13.8-9.7-18.2-17.3c-4.4-7.5-6.7-16.7-6.7-27.6    c0-9.6,1.6-17.6,4.9-24.1c3.3-6.5,7.6-11.8,13-16c5.4-4.1,11.5-7.4,18.2-9.7c6.7-2.3,13.4-4,20.2-5l51-7.9    c0.5-9.6-1-16.9-4.2-21.9c-3.3-5.1-7.9-8.5-13.8-10.4c-5.9-1.8-12.7-2.8-20.1-2.8c-3.9,0-8.2,0.3-12.7,0.9    c-4.5,0.6-9.3,1.5-14.3,2.9c-5,1.3-10.3,2.9-15.7,4.8s-11.1,4.2-16.8,6.8l-2.1-32.8c4.3-1.7,9-3.4,14.3-5c5.3-1.6,11-3.1,17.2-4.4    c6.2-1.3,12.5-2.3,19.1-3c6.6-0.7,13.2-1,20-1c13.6,0,25.2,2,34.9,6.1c9.7,4,17.1,10.5,22.3,19.3s7.8,20.2,7.8,34.3    c0,5.5,0,12.4,0,20.6c0,8.2,0,15.8,0,22.8v20.7c0,8.2,0,16.5,0,24.9c0,8.4,0,17.5,0,27.3h-33.3l-2.1-22.8h-3.3    c-3.3,4.3-7.5,8.4-12.5,12.4s-11,7.4-17.8,10C754.9,301.6,747.2,302.9,738.8,302.9z M750.9,273.5c5.5,0,11-1.2,16.3-3.7    c5.4-2.5,10.3-6,15-10.6c4.6-4.6,8.6-10.2,11.9-16.8V212c-1.7,1-4,2-6.7,2.9c-2.7,0.9-6.8,2-12.2,3.1c-5.4,1.1-13,2.6-22.8,4.3    c-5.7,0.9-10.5,2.6-14.5,5c-4,2.4-7.2,5.6-9.4,9.4s-3.4,8.4-3.4,13.7c0,8.4,2.6,14.3,7.7,17.8C738,271.8,744,273.5,750.9,273.5z"></path>		<path class="st3" d="M931,303.2c-7.5,0-14.9-0.5-22.2-1.6s-14.2-2.5-20.6-4.4c-6.4-1.9-12-4-16.8-6.3l2.8-33.5    c5.2,3,10.8,5.6,16.9,7.9c6.1,2.2,12.5,4,19.1,5.2c6.6,1.2,13.3,1.8,20,1.8c5.5,0,10.6-0.5,15.3-1.6c4.7-1.1,8.4-3.2,11.2-6.3    s4.2-7.7,4.2-13.8c0-4-1.3-7.4-4-10c-2.7-2.6-7-5-13-7.2c-6-2.1-14.2-4.6-24.5-7.5c-9.6-2.5-17.9-5.7-25-9.5    c-7.1-3.8-12.6-8.9-16.5-15.2c-3.9-6.3-5.9-14.7-5.9-25.1c0-16.7,5.4-29.7,16.1-38.9c10.7-9.2,25.1-13.8,43-13.8    c7.6,0,15,0.6,22.1,1.8s13.7,2.8,19.6,4.7c5.9,1.9,11,3.9,15.1,6l-2.9,33.5c-5.3-3.3-11-6.1-17.2-8.4c-6.2-2.2-12.1-3.9-17.7-5    c-5.7-1.1-10.4-1.6-14.3-1.6c-4.5,0-8.7,0.6-12.7,1.8c-4,1.2-7.2,3.3-9.6,6.2c-2.4,2.9-3.6,6.9-3.6,11.8c0,3.9,0.9,7.3,2.8,10    c1.8,2.8,5.2,5.3,10.1,7.6c4.9,2.3,12,4.7,21.3,7.3c11.6,3.3,21.5,6.9,29.6,10.5c8.1,3.7,14.3,8.5,18.4,14.5    c4.2,6,6.2,14.3,6.2,24.9c0,10.6-2.3,20-6.9,28.2c-4.6,8.2-11.9,14.6-21.8,19.2C959.8,300.9,946.9,303.2,931,303.2z"></path>		<path class="st3" d="M1019.7,156v-28.5h124.8V156c-11.3,0-22.6,0-34,0c-11.4,0-22.5,0-33.3,0h-15.7H1019.7z M1106.8,303.4    c-11.9,0-22-2-30.3-5.9s-14.7-10-19-18.3c-4.3-8.3-6.5-19-6.5-32.1c0-9.1,0-18.2,0-27.4s0-18.3,0-27.5c0-9.2,0-18.3,0-27.4    s0-18.2,0-27.3c0-12.2,0-23.5,0-33.9s0-21,0-32l36.5-7.3c0,8.8,0,16.9,0,24.4c0,7.5,0,15.1,0,22.9s0,16.4,0,25.8v99.4    c0,11.8,2.4,20.6,7.1,26.5c4.7,5.9,12.1,8.9,22.1,8.9c4.2,0,8.6-0.7,13.4-2.2s9.2-3.7,13.2-6.6l2.6,31.1c-2.7,1.7-6,3.3-10.1,4.6    c-4.1,1.3-8.6,2.4-13.7,3.1C1117,303,1111.9,303.4,1106.8,303.4z"></path>		<path class="st3" d="M1259.3,302.7c-18.9,0-34.9-3.9-48.1-11.7c-13.2-7.8-23.2-18.4-30.2-31.9c-6.9-13.5-10.4-28.7-10.4-45.8    c0-17.2,3.2-32.6,9.8-46.1s16.1-24.3,28.9-32.1s28.4-11.8,46.9-11.8c6.7,0,13.3,0.6,20,1.6c6.6,1.1,12.9,2.6,18.8,4.5    s11.1,4.1,15.6,6.6l-3.1,32.8c-6.4-3.7-12.5-6.5-18.1-8.5c-5.6-2-10.7-3.3-15.5-4.1s-9.1-1.1-13-1.1c-15.9,0-28.6,5.2-38.2,15.5    c-9.6,10.3-14.3,24.2-14.3,41.7c0,11.3,2.2,21.4,6.6,30.2c4.4,8.9,10.9,15.9,19.6,21.1s19.5,7.8,32.4,7.8c4.7,0,9.4-0.4,14.2-1.3    c4.7-0.9,9.4-2.2,13.9-4c4.6-1.8,9-4.1,13.2-6.8l2.6,33c-3.9,1.8-8.4,3.5-13.5,5.1s-10.8,2.8-17.1,3.7    C1273.9,302.3,1266.9,302.7,1259.3,302.7z"></path>		<path class="st3" d="M1392.4,302.9c-9.8,0-18.6-2-26.3-6s-13.8-9.7-18.2-17.3c-4.4-7.5-6.7-16.7-6.7-27.6c0-9.6,1.6-17.6,4.9-24.1    c3.3-6.5,7.6-11.8,13.1-16c5.4-4.1,11.5-7.4,18.2-9.7c6.7-2.3,13.4-4,20.2-5l51-7.9c0.5-9.6-0.9-16.9-4.2-21.9    c-3.3-5.1-7.9-8.5-13.8-10.4c-5.9-1.8-12.6-2.8-20.1-2.8c-3.9,0-8.2,0.3-12.7,0.9c-4.6,0.6-9.3,1.5-14.3,2.9    c-5,1.3-10.3,2.9-15.7,4.8s-11.1,4.2-16.8,6.8l-2.1-32.8c4.3-1.7,9-3.4,14.3-5c5.3-1.6,11-3.1,17.2-4.4c6.2-1.3,12.5-2.3,19.1-3    c6.6-0.7,13.2-1,20.1-1c13.6,0,25.2,2,34.9,6.1c9.7,4,17.1,10.5,22.3,19.3s7.8,20.2,7.8,34.3c0,5.5,0,12.4,0,20.6    c0,8.2,0,15.8,0,22.8v20.7c0,8.2,0,16.5,0,24.9c0,8.4,0,17.5,0,27.3H1451l-2.1-22.8h-3.3c-3.3,4.3-7.5,8.4-12.5,12.4    s-10.9,7.4-17.8,10C1408.4,301.6,1400.8,302.9,1392.4,302.9z M1404.5,273.5c5.5,0,11-1.2,16.3-3.7s10.3-6,14.9-10.6    c4.6-4.6,8.6-10.2,11.9-16.8V212c-1.7,1-3.9,2-6.7,2.9c-2.7,0.9-6.8,2-12.2,3.1c-5.4,1.1-13,2.6-22.8,4.3    c-5.7,0.9-10.5,2.6-14.5,5s-7.2,5.6-9.4,9.4s-3.4,8.4-3.4,13.7c0,8.4,2.6,14.3,7.7,17.8C1391.6,271.8,1397.6,273.5,1404.5,273.5z"></path>		<path class="st3" d="M1533.6,299.3c0-12.6,0-24.7,0-36.5s0-24.7,0-38.9v-17.3c0-12.8,0-25.8,0-39.1s0-26.6,0-40l31.6-2.1l1.4,33.9    h3.5c4.6-10.1,9.8-17.8,15.7-23s11.9-8.7,18-10.5c6.1-1.8,11.8-2.7,17.1-2.7c3,0,6.1,0.2,9.3,0.7s6.3,1.2,9.2,2.2l-3.3,36.6    c-4-0.7-7.7-1.2-10.9-1.6c-3.2-0.4-6.9-0.5-11.1-0.5c-3.2,0-6.8,0.4-10.7,1.3c-3.9,0.9-7.9,2.6-11.8,5.3c-4,2.6-7.8,6.6-11.4,11.8    c-3.6,5.2-6.8,12.1-9.6,20.6v26.1c0,13.2,0,25.7,0,37.2c0,11.6,0,23.6,0,36.2L1533.6,299.3L1533.6,299.3z"></path>		<path class="st3" d="M1753.9,303.2c-21.1,0-38.4-3.9-52-11.8s-23.7-18.5-30.2-32.1c-6.5-13.6-9.8-29.2-9.8-46.8    c0-17.4,3.1-32.8,9.4-46.3s15.5-24,27.6-31.5c12.1-7.5,26.7-11.3,43.9-11.3c14.9,0,27.7,2.8,38.4,8.4s18.9,13.9,24.7,25    s8.6,24.8,8.6,41.1c0,4.4-0.1,8.3-0.3,11.8c-0.2,3.5-0.6,7-1.1,10.5l-32.3-14.2c0.2-1.7,0.4-3.4,0.5-5.1c0.1-1.7,0.2-3.2,0.2-4.8    c0-14.2-3.5-25.1-10.6-32.9c-7.1-7.8-16.3-11.7-27.7-11.7c-8.9,0-16.6,2.4-23.2,7.3c-6.6,4.8-11.7,11.5-15.3,19.9    c-3.6,8.4-5.4,18.1-5.4,29v5.5c0,12.2,2.1,22.7,6.3,31.4c4.2,8.8,10.7,15.5,19.4,20.2s19.7,7.1,32.9,7.1c5.1,0,10.6-0.4,16.7-1.3    c6.1-0.9,12.1-2.2,18.2-4.1c6.1-1.8,11.9-4.2,17.3-7.1l1.4,32.1c-4.4,2.3-9.5,4.3-15.4,6c-5.9,1.7-12.4,3.1-19.4,4.1    C1769.6,302.8,1762,303.2,1753.9,303.2z M1676.9,220.1v-25.2l114.2-1.4l22.1,9.2v17.4H1676.9z"></path>	</g></g><g>			<use xlink:href="#logo_x5F_icon" width="362.8" height="277.4" x="-181.4" y="-138.7" transform="matrix(1 0 0 -1 340.9241 195.685)" style="overflow:visible;"></use></g></svg>